<svg width="16" height="16" viewBox="0 0 16 16" fill="none" xmlns="http://www.w3.org/2000/svg">
<path d="M14.1667 7.99997H5.93M3.02266 7.99997H1.83333M3.02266 7.99997C3.02266 7.61452 3.17578 7.24486 3.44833 6.97231C3.72089 6.69975 4.09055 6.54663 4.476 6.54663C4.86144 6.54663 5.2311 6.69975 5.50366 6.97231C5.77621 7.24486 5.92933 7.61452 5.92933 7.99997C5.92933 8.38542 5.77621 8.75508 5.50366 9.02763C5.2311 9.30018 4.86144 9.4533 4.476 9.4533C4.09055 9.4533 3.72089 9.30018 3.44833 9.02763C3.17578 8.75508 3.02266 8.38542 3.02266 7.99997ZM14.1667 12.4046H10.3347M10.3347 12.4046C10.3347 12.7902 10.1812 13.1603 9.90856 13.4329C9.63594 13.7055 9.2662 13.8586 8.88066 13.8586C8.49521 13.8586 8.12555 13.7049 7.853 13.4323C7.58045 13.1597 7.42733 12.7901 7.42733 12.4046M10.3347 12.4046C10.3347 12.0191 10.1812 11.6497 9.90856 11.3771C9.63594 11.1045 9.2662 10.9513 8.88066 10.9513C8.49521 10.9513 8.12555 11.1044 7.853 11.377C7.58045 11.6495 7.42733 12.0192 7.42733 12.4046M7.42733 12.4046H1.83333M14.1667 3.5953H12.0967M9.18933 3.5953H1.83333M9.18933 3.5953C9.18933 3.20985 9.34245 2.84019 9.615 2.56764C9.88755 2.29509 10.2572 2.14197 10.6427 2.14197C10.8335 2.14197 11.0225 2.17956 11.1988 2.2526C11.3752 2.32563 11.5354 2.43268 11.6703 2.56764C11.8053 2.70259 11.9123 2.86281 11.9854 3.03913C12.0584 3.21546 12.096 3.40445 12.096 3.5953C12.096 3.78616 12.0584 3.97514 11.9854 4.15147C11.9123 4.32779 11.8053 4.48801 11.6703 4.62296C11.5354 4.75792 11.3752 4.86497 11.1988 4.93801C11.0225 5.01104 10.8335 5.04863 10.6427 5.04863C10.2572 5.04863 9.88755 4.89552 9.615 4.62296C9.34245 4.35041 9.18933 3.98075 9.18933 3.5953Z" stroke="white" stroke-miterlimit="10" stroke-linecap="round"/>
</svg>
