<svg width="9" height="9" viewBox="0 0 9 9" fill="none" xmlns="http://www.w3.org/2000/svg">
<path d="M4.5 1.125C3.50156 1.125 2.60332 1.55918 1.98457 2.25H2.8125C3.12363 2.25 3.375 2.50137 3.375 2.8125C3.375 3.12363 3.12363 3.375 2.8125 3.375H0.5625C0.251367 3.375 0 3.12363 0 2.8125V0.5625C0 0.251367 0.251367 0 0.5625 0C0.873633 0 1.125 0.251367 1.125 0.5625V1.52402C1.94941 0.590625 3.15527 0 4.5 0C6.98555 0 9 2.01445 9 4.5C9 6.98555 6.98555 9 4.5 9C2.9707 9 1.61895 8.23711 0.806836 7.07168C0.629297 6.8168 0.69082 6.46699 0.945703 6.2877C1.20059 6.1084 1.55039 6.17168 1.72969 6.42656C2.34141 7.30195 3.35391 7.87324 4.5 7.87324C6.36328 7.87324 7.875 6.36152 7.875 4.49824C7.875 2.63496 6.36328 1.125 4.5 1.125Z" fill="#454545"/>
</svg>
