<svg width="60" height="60" viewBox="0 0 60 60" fill="none" xmlns="http://www.w3.org/2000/svg">
<path d="M0 30C0 13.4315 13.4315 0 30 0C46.5685 0 60 13.4315 60 30C60 46.5685 46.5685 60 30 60C13.4315 60 0 46.5685 0 30Z" fill="#454545"/>
<rect x="16.2856" y="19.7143" width="25.7143" height="22.2857" fill="white"/>
<path d="M15.1224 42.8571C14.8399 42.8571 14.5689 42.7397 14.3691 42.5308C14.1694 42.3218 14.0571 42.0384 14.0571 41.7429V17.2286C14.0571 16.933 14.1694 16.6496 14.3691 16.4407C14.5689 16.2317 14.8399 16.1143 15.1224 16.1143H42.8204C43.1029 16.1143 43.3739 16.2317 43.5737 16.4407C43.7735 16.6496 43.8857 16.933 43.8857 17.2286V41.7429C43.8857 42.0384 43.7735 42.3218 43.5737 42.5308C43.3739 42.7397 43.1029 42.8571 42.8204 42.8571H15.1224ZM25.6264 34.9011L23.3317 32.501C23.1319 32.2921 22.861 32.1747 22.5785 32.1747C22.296 32.1747 22.0251 32.2921 21.8253 32.501L16.1877 38.4022H42.1109L34.0508 28.2845C33.9508 28.1587 33.8256 28.0575 33.684 27.988C33.5424 27.9186 33.388 27.8825 33.2316 27.8825C33.0752 27.8825 32.9207 27.9186 32.7791 27.988C32.6375 28.0575 32.5123 28.1587 32.4124 28.2845L27.1987 34.8276C27.1039 34.9466 26.9864 35.0436 26.8537 35.1124C26.721 35.1812 26.576 35.2204 26.4281 35.2273C26.2801 35.2342 26.1324 35.2088 25.9943 35.1526C25.8563 35.0965 25.731 35.0108 25.6264 34.9011ZM20.449 25.0286C20.4491 25.4677 20.5319 25.9025 20.6927 26.3082C20.8535 26.7138 21.0891 27.0824 21.3861 27.3928C21.6831 27.7032 22.0356 27.9494 22.4235 28.1173C22.8114 28.2852 23.2272 28.3716 23.647 28.3714C24.0668 28.3713 24.4825 28.2846 24.8704 28.1165C25.2582 27.9483 25.6105 27.7018 25.9073 27.3912C26.2041 27.0806 26.4394 26.7119 26.6 26.3061C26.7605 25.9003 26.8431 25.4655 26.8429 25.0263C26.8426 24.1395 26.5056 23.289 25.9058 22.6621C25.3061 22.0352 24.4928 21.6832 23.6449 21.6835C22.797 21.6838 21.9839 22.0364 21.3846 22.6637C20.7852 23.291 20.4487 24.1417 20.449 25.0286Z" fill="#454545"/>
</svg>
