<svg width="24" height="24" viewBox="0 0 24 24" fill="none" xmlns="http://www.w3.org/2000/svg">
<path d="M4 21C4.07971 21.0097 4.16029 21.0097 4.24 21L8.24 20C8.41744 19.9578 8.57997 19.8679 8.71 19.74L21 7.41003C21.3725 7.0353 21.5816 6.5284 21.5816 6.00003C21.5816 5.47165 21.3725 4.96475 21 4.59003L19.42 3.00003C19.2343 2.81407 19.0137 2.66655 18.7709 2.56591C18.5281 2.46526 18.2678 2.41345 18.005 2.41345C17.7422 2.41345 17.4819 2.46526 17.2391 2.56591C16.9963 2.66655 16.7757 2.81407 16.59 3.00003L4.3 15.29C4.17079 15.4206 4.07774 15.5826 4.03 15.76L3.03 19.76C2.99406 19.8894 2.98454 20.0247 3.00203 20.1579C3.01951 20.291 3.06363 20.4193 3.13176 20.535C3.19989 20.6507 3.29063 20.7515 3.39856 20.8314C3.5065 20.9113 3.62942 20.9687 3.76 21C3.83971 21.0097 3.92029 21.0097 4 21ZM18 4.41003L19.59 6.00003L18 7.59003L16.42 6.00003L18 4.41003ZM5.91 16.51L15 7.41003L16.59 9.00003L7.49 18.1L5.38 18.62L5.91 16.51Z" fill="#454545"/>
</svg>
