<svg width="123" height="123" viewBox="0 0 123 123" fill="none" xmlns="http://www.w3.org/2000/svg">
<path d="M0 5C0 2.23858 2.23858 0 5 0H118C120.761 0 123 2.23858 123 5V118C123 120.761 120.761 123 118 123H5C2.23858 123 0 120.761 0 118V5Z" fill="#454545"/>
<rect x="31.6287" y="40.4142" width="52.7143" height="45.6857" fill="white"/>
<path d="M31.0013 89.6142C30.4221 89.6142 29.8666 89.3735 29.457 88.9451C29.0475 88.5168 28.8174 87.9357 28.8174 87.3299V37.0756C28.8174 36.4698 29.0475 35.8888 29.457 35.4604C29.8666 35.032 30.4221 34.7914 31.0013 34.7914H87.7821C88.3613 34.7914 88.9167 35.032 89.3263 35.4604C89.7359 35.8888 89.9659 36.4698 89.9659 37.0756V87.3299C89.9659 87.9357 89.7359 88.5168 89.3263 88.9451C88.9167 89.3735 88.3613 89.6142 87.7821 89.6142H31.0013ZM52.5343 73.3044L47.8302 68.384C47.4207 67.9558 46.8653 67.7152 46.2862 67.7152C45.7071 67.7152 45.1518 67.9558 44.7422 68.384L33.1851 80.4816H86.3276L69.8044 59.7403C69.5994 59.4824 69.3427 59.2749 69.0525 59.1325C68.7622 58.9901 68.4456 58.9163 68.125 58.9163C67.8044 58.9163 67.4877 58.9901 67.1975 59.1325C66.9072 59.2749 66.6505 59.4824 66.4456 59.7403L55.7577 73.1536C55.5633 73.3976 55.3224 73.5964 55.0503 73.7375C54.7783 73.8786 54.4811 73.9588 54.1778 73.973C53.8745 73.9872 53.5716 73.935 53.2887 73.8199C53.0057 73.7048 52.7488 73.5292 52.5343 73.3044ZM41.9206 53.0656C41.9209 53.9659 42.0907 54.8572 42.4204 55.6888C42.75 56.5204 43.233 57.2759 43.8418 57.9123C44.4505 58.5486 45.1732 59.0533 45.9684 59.3975C46.7637 59.7418 47.616 59.9188 48.4766 59.9185C49.3373 59.9182 50.1895 59.7406 50.9845 59.3958C51.7796 59.051 52.5019 58.5458 53.1103 57.909C53.7186 57.2723 54.2011 56.5164 54.5302 55.6846C54.8593 54.8528 55.0286 53.9613 55.0283 53.0611C55.0277 51.243 54.3367 49.4996 53.1072 48.2144C51.8777 46.9293 50.2105 46.2076 48.4723 46.2082C46.7341 46.2088 45.0673 46.9316 43.8387 48.2176C42.61 49.5037 41.9201 51.2475 41.9206 53.0656Z" fill="#454545"/>
</svg>
