<svg width="20" height="22" viewBox="0 0 20 22" fill="none" xmlns="http://www.w3.org/2000/svg">
<path d="M4.81977 4.69399C5.10458 4.79615 5.40771 4.83431 5.70836 4.80584C6.00901 4.77737 6.30005 4.68295 6.56152 4.52906C6.82299 4.37517 7.04868 4.16545 7.22312 3.9143C7.39756 3.66314 7.5166 3.3765 7.57209 3.07404L7.90698 1.23975C9.28399 0.920084 10.7139 0.920084 12.0909 1.23975L12.4279 3.07404C12.4834 3.3765 12.6024 3.66314 12.7769 3.9143C12.9513 4.16545 13.177 4.37517 13.4385 4.52906C13.6999 4.68295 13.991 4.77737 14.2916 4.80584C14.5923 4.83431 14.8954 4.79615 15.1802 4.69399L16.9059 4.07544C17.8665 5.12992 18.5822 6.39099 19 7.76537L17.6081 8.98113C17.3789 9.18136 17.1949 9.42977 17.0687 9.7093C16.9426 9.98882 16.8773 10.2929 16.8773 10.6005C16.8773 10.9082 16.9426 11.2122 17.0687 11.4918C17.1949 11.7713 17.3789 12.0197 17.6081 12.2199L19 13.4346C18.5822 14.809 17.8665 16.0701 16.9059 17.1246L15.1792 16.506C14.8944 16.4039 14.5912 16.3657 14.2906 16.3942C13.9899 16.4226 13.6989 16.517 13.4374 16.6709C13.176 16.8248 12.9503 17.0346 12.7758 17.2857C12.6014 17.5369 12.4823 17.8235 12.4269 18.126L12.093 19.9603C10.716 20.2799 9.28608 20.2799 7.90907 19.9603L7.57209 18.126C7.5166 17.8235 7.39756 17.5369 7.22312 17.2857C7.04868 17.0346 6.82299 16.8248 6.56152 16.6709C6.30005 16.517 6.00901 16.4226 5.70836 16.3942C5.40771 16.3657 5.10458 16.4039 4.81977 16.506L3.09407 17.1246C2.13347 16.0701 1.4178 14.809 1 13.4346L2.39186 12.2189C2.62092 12.0186 2.80477 11.7703 2.93082 11.4909C3.05687 11.2114 3.12214 10.9075 3.12214 10.6C3.12214 10.2925 3.05687 9.98856 2.93082 9.70913C2.80477 9.42971 2.62092 9.18136 2.39186 8.98113L1 7.76537C1.41749 6.39109 2.1328 5.13003 3.09302 4.07544L4.81977 4.69399ZM10 7.40064C10.8327 7.40064 11.6312 7.73772 12.22 8.33771C12.8088 8.93771 13.1395 9.75148 13.1395 10.6C13.1395 11.4485 12.8088 12.2623 12.22 12.8623C11.6312 13.4623 10.8327 13.7994 10 13.7994C9.16734 13.7994 8.36879 13.4623 7.78001 12.8623C7.19124 12.2623 6.86046 11.4485 6.86046 10.6C6.86046 9.75148 7.19124 8.93771 7.78001 8.33771C8.36879 7.73772 9.16734 7.40064 10 7.40064Z" stroke="#454545" stroke-width="2" stroke-linecap="round" stroke-linejoin="round"/>
</svg>
