<svg width="19" height="20" viewBox="0 0 19 20" fill="none" xmlns="http://www.w3.org/2000/svg">
<path fill-rule="evenodd" clip-rule="evenodd" d="M18.6794 4.11794C18.4739 4.32604 18.1953 4.44292 17.9048 4.44292C17.6143 4.44292 17.3356 4.32604 17.1301 4.11794L16.8085 3.79199V4.07349C16.8085 6.56263 15.534 8.74803 13.612 10C14.5923 10.6369 15.3989 11.5135 15.9575 12.5491C16.5161 13.5848 16.8087 14.7462 16.8085 15.9265V16.208L17.1301 15.8821C17.3379 15.6858 17.6128 15.5789 17.8967 15.584C18.1807 15.5891 18.4517 15.7057 18.6525 15.9093C18.8534 16.1129 18.9684 16.3876 18.9734 16.6754C18.9785 16.9633 18.873 17.2419 18.6794 17.4526L16.487 19.675C16.2815 19.8831 16.0028 20 15.7123 20C15.4218 20 15.1432 19.8831 14.9377 19.675L12.7453 17.4526C12.6376 17.3509 12.5512 17.2282 12.4913 17.0919C12.4313 16.9556 12.3991 16.8084 12.3965 16.6592C12.3939 16.51 12.421 16.3618 12.4761 16.2234C12.5313 16.0851 12.6133 15.9594 12.7174 15.8539C12.8215 15.7483 12.9455 15.6651 13.082 15.6093C13.2185 15.5534 13.3647 15.5259 13.5119 15.5286C13.6591 15.5312 13.8043 15.5638 13.9387 15.6246C14.0732 15.6853 14.1942 15.7729 14.2946 15.8821L14.6161 16.208V15.9265C14.6161 14.6494 14.1157 13.4246 13.2248 12.5216C12.334 11.6185 11.1257 11.1112 9.86589 11.1112L1.09621 11.1112C0.805476 11.1112 0.52665 10.9941 0.321071 10.7858C0.115492 10.5774 -5.37882e-07 10.2947 -5.37882e-07 10C-5.37882e-07 9.70529 0.115492 9.42264 0.321071 9.21425C0.52665 9.00586 0.805476 8.88878 1.09621 8.88878L9.86589 8.88878C11.1257 8.88878 12.334 8.38146 13.2248 7.47842C14.1157 6.57537 14.6161 5.35059 14.6161 4.07349V3.79199L14.2946 4.11794C14.1942 4.22712 14.0732 4.31469 13.9387 4.37542C13.8043 4.43616 13.6591 4.46882 13.5119 4.47145C13.3647 4.47408 13.2185 4.44663 13.082 4.39074C12.9455 4.33486 12.8215 4.25167 12.7174 4.14615C12.6133 4.04063 12.5313 3.91494 12.4761 3.77657C12.421 3.63821 12.3939 3.49 12.3965 3.3408C12.3991 3.19159 12.4313 3.04445 12.4913 2.90814C12.5512 2.77183 12.6376 2.64915 12.7453 2.54742L14.9377 0.32498C15.1432 0.116885 15.4218 0 15.7123 0C16.0028 0 16.2815 0.116885 16.487 0.32498L18.6794 2.54742C18.8847 2.75577 19 3.03821 19 3.33268C19 3.62716 18.8847 3.90959 18.6794 4.11794Z" fill="#454545"/>
</svg>
