<svg width="18" height="20" viewBox="0 0 18 20" fill="none" xmlns="http://www.w3.org/2000/svg">
<path d="M8.55727 0C8.82991 0.000314119 9.09214 0.108755 9.29039 0.303165C9.48863 0.497575 9.60793 0.763281 9.62391 1.04599C9.63989 1.32871 9.55134 1.60709 9.37635 1.82426C9.20137 2.04143 8.95315 2.181 8.68242 2.21444L8.55727 2.22222H3.20898C2.94698 2.22226 2.69411 2.32217 2.49833 2.50302C2.30254 2.68386 2.17746 2.93305 2.14681 3.20333L2.13932 3.33333V16.6667C2.13935 16.9388 2.23554 17.2015 2.40964 17.4049C2.58373 17.6082 2.82363 17.7382 3.08383 17.77L3.20898 17.7778H8.02245C8.29508 17.7781 8.55731 17.8865 8.75556 18.0809C8.9538 18.2754 9.0731 18.5411 9.08908 18.8238C9.10506 19.1065 9.01651 19.3849 8.84152 19.602C8.66654 19.8192 8.41832 19.9588 8.14759 19.9922L8.02245 20H3.20898C2.39046 20 1.60287 19.6752 1.00734 19.0919C0.411811 18.5086 0.053368 17.711 0.00534842 16.8622L4.98509e-09 16.6667V3.33333C-4.55907e-05 2.4831 0.312688 1.66498 0.874215 1.04638C1.43574 0.42777 2.20361 0.0554361 3.02072 0.00555568L3.20898 0H8.55727ZM14.6618 6.07111L17.6868 9.21445C17.8873 9.42281 18 9.70537 18 10C18 10.2946 17.8873 10.5772 17.6868 10.7856L14.6618 13.9289C14.4611 14.1372 14.1889 14.2542 13.9052 14.2541C13.6214 14.254 13.3494 14.1368 13.1488 13.9283C12.9482 13.7198 12.8356 13.4371 12.8357 13.1424C12.8358 12.8476 12.9486 12.565 13.1493 12.3567L14.3484 11.1111H8.55727C8.27358 11.1111 8.00151 10.994 7.80091 10.7857C7.60031 10.5773 7.48762 10.2947 7.48762 10C7.48762 9.70532 7.60031 9.4227 7.80091 9.21433C8.00151 9.00595 8.27358 8.88889 8.55727 8.88889H14.3484L13.1493 7.64333C12.9486 7.43499 12.8358 7.15236 12.8357 6.85762C12.8356 6.56287 12.9482 6.28016 13.1488 6.07167C13.3494 5.86318 13.6214 5.74599 13.9052 5.74589C14.1889 5.74578 14.4611 5.86277 14.6618 6.07111Z" fill="#454545"/>
</svg>
