<svg width="24" height="24" viewBox="0 0 24 24" fill="none" xmlns="http://www.w3.org/2000/svg">
<path d="M5.00047 8.09358C4.99744 8.16554 5.00906 8.23736 5.03462 8.30463C5.06017 8.37189 5.09912 8.43319 5.14907 8.48473C5.19901 8.53628 5.2589 8.577 5.32506 8.60438C5.39121 8.63176 5.46222 8.64522 5.53373 8.64394H7.35922C7.66457 8.64394 7.90797 8.39216 7.9478 8.0869C8.14694 6.62522 9.14266 5.56016 10.9173 5.56016C12.4352 5.56016 13.8248 6.32442 13.8248 8.16266C13.8248 9.57754 12.9972 10.2282 11.6895 11.2175C10.2003 12.307 9.02097 13.5793 9.10505 15.6448L9.11169 16.1283C9.11401 16.2745 9.17331 16.4139 9.2768 16.5165C9.38029 16.619 9.51967 16.6765 9.66486 16.6765H11.4594C11.6061 16.6765 11.7468 16.6178 11.8505 16.5133C11.9543 16.4089 12.0125 16.2672 12.0125 16.1194V15.8855C12.0125 14.2857 12.6166 13.82 14.2474 12.5744C15.5949 11.5428 17 10.3975 17 7.99332C17 4.62656 14.1766 3 11.0854 3C8.28192 3 5.21068 4.31462 5.00047 8.09358ZM8.44566 20.9345C8.44566 22.1221 9.38606 23 10.6805 23C12.028 23 12.9552 22.1221 12.9552 20.9345C12.9552 19.7045 12.0258 18.84 10.6783 18.84C9.38606 18.84 8.44566 19.7045 8.44566 20.9345Z" fill="#252525"/>
</svg>
