<svg width="27" height="27" viewBox="0 0 27 27" fill="none" xmlns="http://www.w3.org/2000/svg">
<path fill-rule="evenodd" clip-rule="evenodd" d="M19.6364 21.5065V5.06244C19.6364 4.06566 19.8982 3.04457 20.3302 2.39938C20.4137 2.26824 20.5226 2.1551 20.6505 2.06657C20.7783 1.97805 20.9226 1.91593 21.0747 1.88384C21.2269 1.85176 21.3839 1.85036 21.5366 1.87972C21.6893 1.90909 21.8346 1.96862 21.964 2.05485C22.0934 2.14108 22.2043 2.25226 22.2902 2.38189C22.3761 2.51151 22.4353 2.65697 22.4642 2.80975C22.4932 2.96253 22.4914 3.11955 22.4589 3.27162C22.4265 3.4237 22.364 3.56776 22.2751 3.69538C22.1886 3.84949 22.1244 4.01508 22.0844 4.18722C22.017 4.44343 21.974 4.74826 21.974 5.06244V7.48052H24.3117C24.8077 7.48052 25.2834 7.28349 25.6341 6.93277C25.9848 6.58205 26.1818 6.10638 26.1818 5.61039V4.20779C26.1818 3.09182 25.7385 2.02155 24.9494 1.23243C24.1603 0.44332 23.09 0 21.974 0L8.41558 0C7.17561 0 5.98642 0.492577 5.10963 1.36937C4.23284 2.24616 3.74026 3.43535 3.74026 4.67532V21.5065C3.74026 22.2505 3.44471 22.964 2.91864 23.4901C2.39256 24.0161 1.67905 24.3117 0.935065 24.3117C0.68707 24.3117 0.449233 24.4102 0.273874 24.5856C0.0985155 24.7609 0 24.9988 0 25.2468C0 25.4947 0.0985155 25.7326 0.273874 25.9079C0.449233 26.0833 0.68707 26.1818 0.935065 26.1818H14.961C16.201 26.1818 17.3902 25.6892 18.267 24.8124C19.1438 23.9357 19.6364 22.7465 19.6364 21.5065ZM9.68166 6.54545C9.68166 5.90026 10.2053 5.37662 10.8505 5.37662H14.4748C14.7848 5.37662 15.0821 5.49977 15.3013 5.71897C15.5205 5.93816 15.6436 6.23546 15.6436 6.54545C15.6436 6.85545 15.5205 7.15274 15.3013 7.37194C15.0821 7.59114 14.7848 7.71429 14.4748 7.71429H10.8505C10.5405 7.71429 10.2432 7.59114 10.024 7.37194C9.80481 7.15274 9.68166 6.85545 9.68166 6.54545ZM8.43616 10.987C8.12616 10.987 7.82887 11.1102 7.60967 11.3294C7.39047 11.5486 7.26732 11.8459 7.26732 12.1558C7.26732 12.4658 7.39047 12.7631 7.60967 12.9823C7.82887 13.2015 8.12616 13.3247 8.43616 13.3247H14.4748C14.7848 13.3247 15.0821 13.2015 15.3013 12.9823C15.5205 12.7631 15.6436 12.4658 15.6436 12.1558C15.6436 11.8459 15.5205 11.5486 15.3013 11.3294C15.0821 11.1102 14.7848 10.987 14.4748 10.987H8.43616ZM7.26545 17.7662C7.26545 17.121 7.78909 16.5974 8.43616 16.5974H14.4748C14.6283 16.5974 14.7803 16.6276 14.9221 16.6864C15.0639 16.7451 15.1928 16.8312 15.3013 16.9397C15.4098 17.0483 15.4959 17.1771 15.5547 17.3189C15.6134 17.4608 15.6436 17.6127 15.6436 17.7662C15.6436 17.9197 15.6134 18.0717 15.5547 18.2135C15.4959 18.3553 15.4098 18.4842 15.3013 18.5927C15.1928 18.7013 15.0639 18.7874 14.9221 18.8461C14.7803 18.9048 14.6283 18.9351 14.4748 18.9351H8.43429C8.12462 18.9346 7.8278 18.8112 7.60901 18.5921C7.39021 18.3729 7.26545 18.0759 7.26545 17.7662Z" fill="#252525"/>
</svg>
