<svg width="32" height="32" viewBox="0 0 32 32" fill="none" xmlns="http://www.w3.org/2000/svg">
<path d="M22.042 8.95105V25.0629C22.042 26.1312 21.6176 27.1557 20.8622 27.9111C20.1068 28.6665 19.0823 29.0909 18.014 29.0909H2.90912C3.9774 29.0909 5.00193 28.6665 5.75733 27.9111C6.51272 27.1557 6.93709 26.1312 6.93709 25.0629V6.93706C6.93709 5.86878 7.36147 4.84425 8.11686 4.08885C8.87225 3.33346 9.89678 2.90909 10.9651 2.90909H25.5665" stroke="#454545" stroke-width="2" stroke-linecap="round" stroke-linejoin="round"/>
<path d="M13.986 9.95804H17.007M11.972 16H17.007M11.972 22.042H17.007M25.5665 2.90909C26.5012 2.90909 27.3977 3.28042 28.0586 3.94138C28.7196 4.60235 29.0909 5.49881 29.0909 6.43356V7.94405C29.0909 8.21112 28.9848 8.46726 28.796 8.6561C28.6071 8.84495 28.351 8.95105 28.0839 8.95105H22.042V6.43356C22.042 5.49881 22.4133 4.60235 23.0743 3.94138C23.7352 3.28042 24.6317 2.90909 25.5665 2.90909Z" stroke="#454545" stroke-width="2" stroke-linecap="round" stroke-linejoin="round"/>
</svg>
