<svg width="26" height="28" viewBox="0 0 26 28" fill="none" xmlns="http://www.w3.org/2000/svg">
<path fill-rule="evenodd" clip-rule="evenodd" d="M6.09308 5.92531C6.47284 6.06153 6.87701 6.11241 7.27788 6.07445C7.67874 6.0365 8.0668 5.9106 8.41542 5.70541C8.76404 5.50023 9.06497 5.2206 9.29755 4.88573C9.53014 4.55086 9.68887 4.16867 9.76285 3.76539L10.2094 1.31966C12.0454 0.893446 13.9519 0.893446 15.788 1.31966L16.2373 3.76539C16.3113 4.16867 16.47 4.55086 16.7026 4.88573C16.9351 5.2206 17.2361 5.50023 17.5847 5.70541C17.9333 5.9106 18.3214 6.0365 18.7222 6.07445C19.1231 6.11241 19.5273 6.06153 19.907 5.92531L22.208 5.10059C23.4888 6.50656 24.443 8.18799 25.0001 10.0205L23.1442 11.6415C22.8386 11.9085 22.5933 12.2397 22.425 12.6124C22.2568 12.9851 22.1697 13.3905 22.1697 13.8007C22.1697 14.2109 22.2568 14.6163 22.425 14.989C22.5933 15.3617 22.8386 15.6929 23.1442 15.9599L25.0001 17.5795C24.443 19.412 23.4888 21.0934 22.208 22.4994L19.9056 21.6747C19.5259 21.5385 19.1217 21.4876 18.7208 21.5255C18.32 21.5635 17.9319 21.6894 17.5833 21.8946C17.2347 22.0998 16.9338 22.3794 16.7012 22.7143C16.4686 23.0491 16.3099 23.4313 16.2359 23.8346L15.7908 26.2803C13.9547 26.7066 12.0482 26.7066 10.2122 26.2803L9.76285 23.8346C9.68887 23.4313 9.53014 23.0491 9.29755 22.7143C9.06497 22.3794 8.76404 22.0998 8.41542 21.8946C8.0668 21.6894 7.67874 21.5635 7.27788 21.5255C6.87701 21.4876 6.47284 21.5385 6.09308 21.6747L3.79215 22.4994C2.51135 21.0934 1.55713 19.412 1.00006 17.5795L2.85587 15.9585C3.16128 15.6915 3.40643 15.3604 3.57449 14.9878C3.74256 14.6153 3.82958 14.2101 3.82958 13.8C3.82958 13.3899 3.74256 12.9847 3.57449 12.6122C3.40643 12.2396 3.16128 11.9085 2.85587 11.6415L1.00006 10.0205C1.55672 8.18812 2.51046 6.5067 3.79076 5.10059L6.09308 5.92531ZM15.96 10.7836C15.175 9.98362 14.1103 9.53419 13.0001 9.53419C11.8899 9.53419 10.8251 9.98362 10.0401 10.7836C9.25504 11.5836 8.81401 12.6686 8.81401 13.8C8.81401 14.9314 9.25504 16.0164 10.0401 16.8164C10.8251 17.6164 11.8899 18.0658 13.0001 18.0658C14.1103 18.0658 15.175 17.6164 15.96 16.8164C16.7451 16.0164 17.1861 14.9314 17.1861 13.8C17.1861 12.6686 16.7451 11.5836 15.96 10.7836Z" fill="#454545" stroke="#454545" stroke-width="2" stroke-linecap="round" stroke-linejoin="round"/>
</svg>
