<svg width="32" height="32" viewBox="0 0 32 32" fill="none" xmlns="http://www.w3.org/2000/svg">
<path d="M9.89301 8.12527C10.2728 8.26149 10.6769 8.31236 11.0778 8.2744C11.4787 8.23645 11.8667 8.11055 12.2153 7.90536C12.564 7.70018 12.8649 7.42055 13.0975 7.08568C13.3301 6.75081 13.4888 6.36862 13.5628 5.96534L14.0093 3.51961C15.8453 3.0934 17.7519 3.0934 19.5879 3.51961L20.0372 5.96534C20.1112 6.36862 20.2699 6.75081 20.5025 7.08568C20.7351 7.42055 21.036 7.70018 21.3846 7.90536C21.7332 8.11055 22.1213 8.23645 22.5222 8.2744C22.923 8.31236 23.3272 8.26149 23.707 8.12527L26.0079 7.30054C27.2887 8.70652 28.2429 10.3879 28.8 12.2204L26.9442 13.8415C26.6385 14.1084 26.3932 14.4396 26.225 14.8123C26.0568 15.185 25.9697 15.5904 25.9697 16.0007C25.9697 16.4109 26.0568 16.8163 26.225 17.189C26.3932 17.5617 26.6385 17.8929 26.9442 18.1599L28.8 19.7795C28.2429 21.612 27.2887 23.2934 26.0079 24.6994L23.7056 23.8746C23.3258 23.7384 22.9216 23.6875 22.5208 23.7255C22.1199 23.7635 21.7319 23.8893 21.3832 24.0945C21.0346 24.2997 20.7337 24.5793 20.5011 24.9142C20.2685 25.2491 20.1098 25.6313 20.0358 26.0346L19.5907 28.4803C17.7547 28.9065 15.8481 28.9065 14.0121 28.4803L13.5628 26.0346C13.4888 25.6313 13.3301 25.2491 13.0975 24.9142C12.8649 24.5793 12.564 24.2997 12.2153 24.0945C11.8667 23.8893 11.4787 23.7635 11.0778 23.7255C10.6769 23.6875 10.2728 23.7384 9.89301 23.8746L7.59208 24.6994C6.31128 23.2934 5.35705 21.612 4.79999 19.7795L6.6558 18.1585C6.96121 17.8915 7.20635 17.5603 7.37442 17.1878C7.54249 16.8152 7.6295 16.41 7.6295 16C7.6295 15.5899 7.54249 15.1847 7.37442 14.8121C7.20635 14.4396 6.96121 14.1084 6.6558 13.8415L4.79999 12.2204C5.35664 10.3881 6.31039 8.70665 7.59069 7.30054L9.89301 8.12527ZM16.8 11.7341C17.9102 11.7341 18.9749 12.1836 19.76 12.9836C20.545 13.7836 20.986 14.8686 20.986 16C20.986 17.1313 20.545 18.2163 19.76 19.0163C18.9749 19.8163 17.9102 20.2658 16.8 20.2658C15.6898 20.2658 14.625 19.8163 13.84 19.0163C13.055 18.2163 12.6139 17.1313 12.6139 16C12.6139 14.8686 13.055 13.7836 13.84 12.9836C14.625 12.1836 15.6898 11.7341 16.8 11.7341Z" stroke="#252525" stroke-width="2" stroke-linecap="round" stroke-linejoin="round"/>
</svg>
