<svg width="44" height="44" viewBox="0 0 44 44" fill="none" xmlns="http://www.w3.org/2000/svg">
<circle cx="22" cy="22" r="22" fill="#252525"/>
<path d="M11.3333 30.0001C11.3333 28.5856 11.8952 27.229 12.8954 26.2288C13.8956 25.2287 15.2522 24.6667 16.6666 24.6667H27.3333C28.7478 24.6667 30.1044 25.2287 31.1045 26.2288C32.1047 27.229 32.6666 28.5856 32.6666 30.0001C32.6666 30.7073 32.3857 31.3856 31.8856 31.8857C31.3855 32.3858 30.7072 32.6667 30 32.6667H14C13.2927 32.6667 12.6145 32.3858 12.1144 31.8857C11.6143 31.3856 11.3333 30.7073 11.3333 30.0001Z" stroke="white" stroke-width="2" stroke-linejoin="round"/>
<path d="M22 19.3334C24.2091 19.3334 26 17.5425 26 15.3334C26 13.1242 24.2091 11.3334 22 11.3334C19.7909 11.3334 18 13.1242 18 15.3334C18 17.5425 19.7909 19.3334 22 19.3334Z" stroke="white" stroke-width="2"/>
</svg>
